<svg width="36" height="36" viewBox="0 0 36 36" fill="none" xmlns="http://www.w3.org/2000/svg">
<path d="M18 32.998L1.5 16.873L7.5 3.74805H28.5L34.5 16.873L18 32.998Z" fill="#4DB6AC"/>
<path d="M28.5 16.5C28.5 15.423 24.9667 14.5237 20.25 14.3032V12H26.25V7.5H9.75V12H15.75V14.3032C11.0332 14.5237 7.5 15.423 7.5 16.5C7.5 17.577 11.0332 18.4763 15.75 18.6968V27H20.25V18.6968C24.9667 18.4763 28.5 17.577 28.5 16.5ZM18 18C13.0297 18 9 17.2448 9 16.3125C9 15.5265 11.8703 14.868 15.75 14.6805V17.19C16.47 17.235 17.22 17.25 18 17.25C18.78 17.25 19.53 17.235 20.25 17.19V14.6805C24.1297 14.868 27 15.5265 27 16.3125C27 17.2448 22.9703 18 18 18Z" fill="white"/>
</svg>
