<svg width="49" height="15" viewBox="0 0 49 15" fill="none" xmlns="http://www.w3.org/2000/svg">
<path d="M21.277 14.695H17.3594L19.8098 0.650391H23.7272L21.277 14.695Z" fill="#3362AB"/>
<path d="M35.4787 0.992468C34.7059 0.708294 33.4803 0.394531 31.9649 0.394531C28.0961 0.394531 25.3717 2.3069 25.355 5.041C25.3228 7.05822 27.3055 8.17863 28.7884 8.85123C30.3041 9.53853 30.8194 9.98713 30.8194 10.5998C30.8039 11.5407 29.5946 11.9744 28.4667 11.9744C26.9026 11.9744 26.0645 11.7508 24.7909 11.2273L24.275 11.0029L23.7268 14.1556C24.6456 14.5436 26.3385 14.888 28.0961 14.9031C32.2067 14.9031 34.8829 13.0203 34.9146 10.1067C34.9302 8.50788 33.8833 7.28282 31.6262 6.28175C30.2559 5.63914 29.4168 5.20583 29.4168 4.54831C29.4329 3.95058 30.1265 3.33834 31.6733 3.33834C32.9469 3.30835 33.8827 3.59213 34.5915 3.87611L34.9459 4.02524L35.4787 0.992468Z" fill="#3362AB"/>
<path d="M40.6855 9.71953C41.0081 8.91268 42.2496 5.78994 42.2496 5.78994C42.2333 5.81993 42.5716 4.9682 42.7651 4.44533L43.0388 5.6555C43.0388 5.6555 43.7807 9.01733 43.9418 9.71953C43.3296 9.71953 41.4593 9.71953 40.6855 9.71953ZM45.5214 0.650391H42.4911C41.5566 0.650391 40.8466 0.904181 40.4434 1.81568L34.6243 14.6948H38.7349C38.7349 14.6948 39.4117 12.9614 39.5572 12.5881C40.0081 12.5881 44.007 12.5881 44.5871 12.5881C44.6996 13.0812 45.0545 14.6948 45.0545 14.6948H48.6819L45.5214 0.650391Z" fill="#3362AB"/>
<path d="M14.0869 0.650391L10.2502 10.2275L9.83096 8.28515C9.12164 6.04393 6.89706 3.6089 4.41455 2.39813L7.9288 14.6802H12.0716L18.2295 0.650391H14.0869Z" fill="#3362AB"/>
<path d="M6.68766 0.650391H0.384552L0.320068 0.934167C5.23689 2.09966 8.4932 4.90903 9.83108 8.28575L8.46085 1.83097C8.23527 0.933969 7.54202 0.67998 6.68766 0.650391Z" fill="#FAA61A"/>
</svg>
