<svg width="38" height="23" viewBox="0 0 38 23" fill="none" xmlns="http://www.w3.org/2000/svg">
<path d="M24.1225 20.5227H14.1821V2.46484H24.1225V20.5227Z" fill="#FF5F00"/>
<path d="M14.8191 11.4941C14.8191 7.83103 16.5159 4.56803 19.1581 2.46523C17.2259 0.927554 14.7873 0.0097677 12.1371 0.0097677C5.863 0.0097677 0.7771 5.15141 0.7771 11.4941C0.7771 17.8369 5.863 22.9785 12.1371 22.9785C14.7873 22.9785 17.2259 22.0607 19.1581 20.5231C16.5159 18.4203 14.8191 15.1573 14.8191 11.4941Z" fill="#EB001B"/>
<path d="M37.529 11.4941C37.529 17.8369 32.4431 22.9785 26.169 22.9785C23.5187 22.9785 21.0802 22.0607 19.1472 20.5231C21.7902 18.4203 23.487 15.1573 23.487 11.4941C23.487 7.83103 21.7902 4.56803 19.1472 2.46523C21.0802 0.927554 23.5187 0.0097677 26.169 0.0097677C32.4431 0.0097677 37.529 5.15141 37.529 11.4941Z" fill="#F79E1B"/>
</svg>
