<svg width="28" height="28" viewBox="0 0 28 28" fill="none" xmlns="http://www.w3.org/2000/svg">
<path d="M9.33317 13.9993L12.8332 17.4993L18.6665 10.4993M23.3332 8.39929V19.5993C23.3332 20.9061 23.3334 21.5596 23.0791 22.0587C22.8554 22.4978 22.498 22.8546 22.0589 23.0783C21.5598 23.3326 20.9069 23.3327 19.6001 23.3327H8.40007C7.09328 23.3327 6.43939 23.3326 5.94027 23.0783C5.50122 22.8546 5.14453 22.4978 4.92082 22.0587C4.6665 21.5596 4.6665 20.9061 4.6665 19.5993V8.39929C4.6665 7.0925 4.6665 6.43919 4.92082 5.94006C5.14453 5.50102 5.50122 5.14404 5.94027 4.92033C6.43939 4.66602 7.09328 4.66602 8.40007 4.66602H19.6001C20.9069 4.66602 21.5598 4.66602 22.0589 4.92033C22.498 5.14404 22.8554 5.50102 23.0791 5.94006C23.3334 6.43919 23.3332 7.0925 23.3332 8.39929Z" stroke="white" stroke-width="2" stroke-linecap="round" stroke-linejoin="round" stroke-linejoin="round"/>
</svg>
