<svg width="22" height="14" viewBox="0 0 22 14" fill="none" xmlns="http://www.w3.org/2000/svg">
<path d="M2.5868 8.77887C4.36623 10.5479 7.46953 13 11.0002 13C14.5308 13 17.6338 10.5479 19.4133 8.77887L19.4141 8.77804C19.8832 8.31168 20.118 8.07822 20.2674 7.62024C20.3741 7.29341 20.3741 6.70659 20.2674 6.37976C20.118 5.92176 19.8832 5.68827 19.414 5.22187L19.4133 5.22111C17.6338 3.45208 14.5308 1 11.0002 1C7.46953 1 4.36623 3.45208 2.5868 5.22111C2.11714 5.68802 1.88229 5.9215 1.7328 6.37976C1.62618 6.70659 1.62618 7.29341 1.7328 7.62024C1.88228 8.07847 2.11711 8.31193 2.58673 8.7788L2.5868 8.77887Z" stroke="#404040" stroke-width="2" stroke-linecap="round" stroke-linejoin="round"/>
</svg>
